# xmcd
#
# Track frame offsets:
#	150
#	18311
#	33799
#	51931
#	66543
#	82646
#	98688
#	112668
#	127668
#	146418
#	162985
#	178285
#	192460
#	214052
#	229554
#
# Disc length: 3286 seconds
#
# Revision: 1
# Processed by: cddbd v1.5.1PL2 Copyright (c) Steve Scherf et al.
# Submitted via: audiograbber 1.83.01
#
DISCID=bc0cd40f
DTITLE=Music Maestro - MM6418
DYEAR=1900
DGENRE=Karaoke
TTITLE0=Straight, George - I Hate Everything
TTITLE1=Rascal Flatts - Feels Like Today
TTITLE2=Shedaisy - Come Home Soon
TTITLE3=Jackson, Alan - Too Much Of A Good Thing
TTITLE4=Lonestar - Mr. Mom
TTITLE5=Allan, Alan - Nothing On But The Radfio
TTITLE6=Trick Pony - Bride, The
TTITLE7=Brooks and Dunn - That's What It's All About
TTITLE8=Taylor, Ryan - Last Thing She Said, The
TTITLE9=Worley, Darryl - Awful Beautiful Life
TTITLE10=Walker, Clay - Jesus Was A Country Boy
TTITLE11=Lawrence, Tracy - It's All How You Look At It
TTITLE12=Montgomery, John Michael - Goes Good With Beer
TTITLE13=Holy, Steve - Put Your Best Dress On
TTITLE14=Urban, Keith - Days Go By
EXTD=
EXTT0=
EXTT1=
EXTT2=
EXTT3=
EXTT4=
EXTT5=
EXTT6=
EXTT7=
EXTT8=
EXTT9=
EXTT10=
EXTT11=
EXTT12=
EXTT13=
EXTT14=
PLAYORDER=
